<?xml version="1.0" encoding="UTF-8" standalone="no"?><!DOCTYPE svg PUBLIC "-//W3C//DTD SVG 1.1//EN" "http://www.w3.org/Graphics/SVG/1.1/DTD/svg11.dtd"><svg width="100%" height="100%" viewBox="0 0 524 423" version="1.1" xmlns="http://www.w3.org/2000/svg" xmlns:xlink="http://www.w3.org/1999/xlink" xml:space="preserve" xmlns:serif="http://www.serif.com/" style="fill-rule:evenodd;clip-rule:evenodd;stroke-linejoin:round;stroke-miterlimit:1.41421;"><g id="brt-back-left"><path d="M120.16,160.841l403.77,200.278l-119.863,61.235l-403.77,-200.277l119.863,-61.236Z" style="fill-opacity:0.3;"/><g><path d="M145.874,157.649l224.333,112.866l-5.567,7.526l40,120.209l113,-56.5l0,0c2.424,-1.225 3.976,-4.192 3.976,-8.392l0,-128.333c0,-7.359 -4.767,-15.732 -10.64,-18.686l-366.719,-184.504c-2.512,-1.264 -4.821,-1.333 -6.642,-0.422l0,0l-114.4,57.2l11.425,66.69l59.972,66.947l48.028,-25.209l3.234,-9.392Z" style="fill:url(#_Linear1);"/><clipPath id="_clip2"><path d="M145.874,157.649l224.333,112.866l-5.567,7.526l40,120.209l113,-56.5l0,0c2.424,-1.225 3.976,-4.192 3.976,-8.392l0,-128.333c0,-7.359 -4.767,-15.732 -10.64,-18.686l-366.719,-184.504c-2.512,-1.264 -4.821,-1.333 -6.642,-0.422l0,0l-114.4,57.2l11.425,66.69l59.972,66.947l48.028,-25.209l3.234,-9.392Z"/></clipPath><g clip-path="url(#_clip2)"><path d="M394.014,244.012l127.602,-62.994l0,104.402l-127.602,62.994l0,-104.402Z" style="fill-opacity:0.7;"/></g><path d="M20.117,66.565c0,-7.359 4.768,-10.935 10.64,-7.98l366.72,184.503c5.872,2.955 10.64,11.328 10.64,18.687l0,128.333c0,7.359 -4.768,10.935 -10.64,7.98l-366.72,-184.503c-5.872,-2.955 -10.64,-11.328 -10.64,-18.687l0,-128.333Z" style="fill:#900400;"/><clipPath id="_clip3"><path d="M20.117,66.565c0,-7.359 4.768,-10.935 10.64,-7.98l366.72,184.503c5.872,2.955 10.64,11.328 10.64,18.687l0,128.333c0,7.359 -4.768,10.935 -10.64,7.98l-366.72,-184.503c-5.872,-2.955 -10.64,-11.328 -10.64,-18.687l0,-128.333Z"/></clipPath><g clip-path="url(#_clip3)"><path d="M368.26,228.389l39.857,20.053l0,93l-39.857,-20.053l0,-93Z"/><path d="M276.131,182.037l90.607,45.586l0,93l-90.607,-45.586l0,-93Z"/><path d="M183.288,135.326l90.607,45.586l0,93l-90.607,-45.586l0,-93Z"/><path d="M90.171,88.477l90.607,45.586l0,93l-90.607,-45.586l0,-93Z"/><path d="M20.117,53.231l68.099,34.262l0,93l-68.099,5.738l0,-133Z"/><path d="M20.117,191.758l11.868,5.971l0,8.973l-11.868,-5.971l0,-8.973Z" style="fill:#ffb000;"/></g><path d="M340.012,329.119c-15.591,-7.844 -28.248,-0.348 -28.248,16.729c0,17.078 12.657,37.31 28.248,45.154c15.59,7.844 28.248,0.348 28.248,-16.729c0,-17.078 -12.658,-37.31 -28.248,-45.154Z"/><path d="M122.86,219.865c-15.59,-7.843 -28.248,-0.347 -28.248,16.73c0,17.077 12.658,37.31 28.248,45.154c15.591,7.844 28.248,0.348 28.248,-16.729c0,-17.078 -12.657,-37.311 -28.248,-45.155Z"/><path d="M340.012,343.197c-8.497,-4.275 -15.396,-0.189 -15.396,9.118c0,9.307 6.899,20.334 15.396,24.609c8.497,4.275 15.395,0.189 15.395,-9.118c0,-9.307 -6.898,-20.334 -15.395,-24.609Z" style="fill:#fff;"/><path d="M122.86,233.944c-8.497,-4.275 -15.395,-0.19 -15.395,9.118c0,9.307 6.898,20.334 15.395,24.609c8.497,4.275 15.396,0.189 15.396,-9.118c0,-9.307 -6.899,-20.334 -15.396,-24.609Z" style="fill:#fff;"/><path d="M454.572,341.713l20.589,-10.164l0,13.791l-20.589,10.165l0,-13.792Z" style="fill:#c8c8c8;"/><path d="M408.117,364.352l6.748,-3.331l0,15.483l-6.748,3.331l0,-15.483Z" style="fill:#ff9c00;"/><path d="M514.868,311.652l6.748,-3.331l0,15.483l-6.748,3.331l0,-15.483Z" style="fill:#ff9c00;"/></g></g><defs><linearGradient id="_Linear1" x1="0" y1="0" x2="1" y2="0" gradientUnits="userSpaceOnUse" gradientTransform="matrix(-217.137,-104.295,-104.295,217.137,464.867,209.393)"><stop offset="0" style="stop-color:#b30500;stop-opacity:1"/><stop offset="1" style="stop-color:#ff0600;stop-opacity:1"/></linearGradient></defs></svg>