<?xml version="1.0" encoding="UTF-8" standalone="no"?><!DOCTYPE svg PUBLIC "-//W3C//DTD SVG 1.1//EN" "http://www.w3.org/Graphics/SVG/1.1/DTD/svg11.dtd"><svg width="100%" height="100%" viewBox="0 0 525 417" version="1.1" xmlns="http://www.w3.org/2000/svg" xmlns:xlink="http://www.w3.org/1999/xlink" xml:space="preserve" xmlns:serif="http://www.serif.com/" style="fill-rule:evenodd;clip-rule:evenodd;stroke-linejoin:round;stroke-miterlimit:1.41421;"><g id="brt-right-front"><path d="M120.248,155.094l403.77,200.278l-119.863,61.235l-403.77,-200.278l119.863,-61.235Z" style="fill-opacity:0.3;"/><g><path d="M161.97,164.138l221.056,111.614l3.992,27.324l23.125,93.871l109.884,-54.942l0,0c2.432,-1.216 3.991,-4.186 3.991,-8.397l0,-128.333c0,-7.359 -4.761,-15.738 -10.625,-18.698l-366.75,-185.178c-2.509,-1.267 -4.815,-1.338 -6.634,-0.429l0,0l-111.004,55.677l16.523,89.475l99,50.837l17.442,-32.821Z" style="fill:url(#_Linear1);"/><clipPath id="_clip2"><path d="M161.97,164.138l221.056,111.614l3.992,27.324l23.125,93.871l109.884,-54.942l0,0c2.432,-1.216 3.991,-4.186 3.991,-8.397l0,-128.333c0,-7.359 -4.761,-15.738 -10.625,-18.698l-366.75,-185.178c-2.509,-1.267 -4.815,-1.338 -6.634,-0.429l0,0l-111.004,55.677l16.523,89.475l99,50.837l17.442,-32.821Z"/></clipPath><g clip-path="url(#_clip2)"><path d="M390.315,243.676l132.718,-65.594l0,147.566l-132.718,65.593l0,-147.565Z"/><clipPath id="_clip3"><path d="M390.315,243.676l132.718,-65.594l0,147.566l-132.718,65.593l0,-147.565Z"/></clipPath><g clip-path="url(#_clip3)"><path d="M549.307,148.007l-78,48.939c0,0 30.847,6.602 23.997,28.08c-10.706,33.567 -93.997,152.341 -93.997,152.341l138.24,-43.803l9.76,-185.557Z" style="fill:url(#_Linear4);"/></g><path d="M412.528,384.255l5,-2l0,9l-5,2l0,-9Z" style="fill:#ffb000;"/></g><path d="M414.135,260.217c0,-7.359 -4.761,-15.738 -10.625,-18.699l-366.75,-185.178c-5.864,-2.961 -10.625,0.61 -10.625,7.969l0,128.333c0,7.359 4.761,15.737 10.625,18.698l366.75,185.178c5.864,2.961 10.625,-0.61 10.625,-7.969l0,-128.332Z" style="fill:url(#_Linear5);"/><clipPath id="_clip6"><path d="M414.135,260.217c0,-7.359 -4.761,-15.738 -10.625,-18.699l-366.75,-185.178c-5.864,-2.961 -10.625,0.61 -10.625,7.969l0,128.333c0,7.359 4.761,15.737 10.625,18.698l366.75,185.178c5.864,2.961 10.625,-0.61 10.625,-7.969l0,-128.332Z"/></clipPath><g clip-path="url(#_clip6)"><path d="M65.991,71.1l-39.856,-20.124l0,93l39.856,20.124l0,-93Z"/><path d="M158.121,117.618l-90.608,-45.75l0,93l90.608,45.75l0,-93Z"/><path d="M250.964,164.495l-90.608,-45.749l0,93l90.608,45.749l0,-93Z"/><path d="M344.081,211.512l-90.608,-45.749l0,93l90.608,45.749l0,-93Z"/><path d="M414.135,246.883l-68.099,-34.384l0,93l68.099,74.384l0,-133Z"/><path d="M414.135,384.092l-11.869,-5.993l0,8.974l11.869,5.992l0,-8.973Z" style="fill:#ffb000;"/></g><path d="M94.24,200.305c15.59,7.872 28.248,28.127 28.248,45.205c0,17.077 -12.658,24.55 -28.248,16.678c-15.591,-7.871 -28.249,-28.127 -28.249,-45.204c0,-17.078 12.658,-24.551 28.249,-16.679Z"/><path d="M311.391,309.948c15.591,7.872 28.248,28.128 28.248,45.205c0,17.077 -12.657,24.551 -28.248,16.679c-15.59,-7.872 -28.248,-28.128 -28.248,-45.205c0,-17.077 12.658,-24.551 28.248,-16.679Z"/><path d="M94.24,214.383c8.497,4.29 15.395,15.33 15.395,24.637c0,9.307 -6.898,13.38 -15.395,9.09c-8.497,-4.29 -15.396,-15.33 -15.396,-24.637c0,-9.307 6.899,-13.38 15.396,-9.09Z" style="fill:#fff;"/><path d="M311.391,324.026c8.497,4.291 15.396,15.33 15.396,24.637c0,9.308 -6.899,13.381 -15.396,9.09c-8.497,-4.29 -15.395,-15.329 -15.395,-24.636c0,-9.308 6.898,-13.381 15.395,-9.091Z" style="fill:#fff;"/><g><path d="M498.932,344.654c0,-2.242 1.463,-4.786 3.265,-5.677l12.305,-6.081c1.803,-0.891 3.266,0.206 3.266,2.449c0,2.242 -1.463,4.786 -3.266,5.677l-12.305,6.082c-1.802,0.89 -3.265,-0.207 -3.265,-2.45Z" style="fill:#d7d7d7;"/><path d="M445.705,369.339c0,-0.402 0.262,-0.858 0.585,-1.017l48.616,-24.028c0.323,-0.16 0.586,0.037 0.586,0.439c0,0.402 -0.263,0.858 -0.586,1.017l-48.616,24.028c-0.323,0.16 -0.585,-0.037 -0.585,-0.439Z"/><path d="M445.705,372.624c0,-0.402 0.262,-0.858 0.585,-1.018l48.616,-24.027c0.323,-0.16 0.586,0.037 0.586,0.438c0,0.402 -0.263,0.858 -0.586,1.018l-48.616,24.028c-0.323,0.159 -0.585,-0.037 -0.585,-0.439Z"/><path d="M423.428,381.97c0,-2.242 1.463,-4.786 3.266,-5.677l12.305,-6.081c1.802,-0.891 3.266,0.206 3.266,2.449c0,2.242 -1.464,4.786 -3.266,5.677l-12.305,6.082c-1.803,0.89 -3.266,-0.207 -3.266,-2.45Z" style="fill:#d7d7d7;"/></g></g></g><defs><linearGradient id="_Linear1" x1="0" y1="0" x2="1" y2="0" gradientUnits="userSpaceOnUse" gradientTransform="matrix(463.901,198.304,198.304,-463.901,-40.4723,-2.16597)"><stop offset="0" style="stop-color:#900400;stop-opacity:1"/><stop offset="1" style="stop-color:#ff130d;stop-opacity:1"/></linearGradient><linearGradient id="_Linear4" x1="0" y1="0" x2="1" y2="0" gradientUnits="userSpaceOnUse" gradientTransform="matrix(132.718,189,189,-132.718,390.315,93.834)"><stop offset="0" style="stop-color:#fff;stop-opacity:1"/><stop offset="1" style="stop-color:#fff;stop-opacity:0"/></linearGradient><linearGradient id="_Linear5" x1="0" y1="0" x2="1" y2="0" gradientUnits="userSpaceOnUse" gradientTransform="matrix(40.5594,-119.203,-119.203,-40.5594,168.528,314.607)"><stop offset="0" style="stop-color:#900400;stop-opacity:1"/><stop offset="1" style="stop-color:#ff130d;stop-opacity:1"/></linearGradient></defs></svg>