<?xml version="1.0" encoding="UTF-8" standalone="no"?>
<!DOCTYPE svg PUBLIC "-//W3C//DTD SVG 1.1//EN" "http://www.w3.org/Graphics/SVG/1.1/DTD/svg11.dtd">
<svg width="100%" height="100%" viewBox="0 0 1477 362" version="1.1" xmlns="http://www.w3.org/2000/svg" xmlns:xlink="http://www.w3.org/1999/xlink" xml:space="preserve" xmlns:serif="http://www.serif.com/" style="fill-rule:evenodd;clip-rule:evenodd;stroke-linejoin:round;stroke-miterlimit:2;">
    <g transform="matrix(1,0,0,1,-6911.455137,-8162.657784)">
        <g transform="matrix(1.096718,0,0,1.214683,16692.516945,12659.995054)">
            <g transform="matrix(3.251323,0,0,2.935567,-22192.151439,-22392.878815)">
                <path d="M4090.77,6371.775C4105.655,6372.297 4114.338,6372.558 4116.819,6372.558C4117.57,6372.558 4118.353,6375.17 4119.169,6380.393C4119.3,6380.589 4121.193,6389.206 4124.849,6406.246L4125.045,6406.246C4125.437,6404.581 4128.766,6394.135 4135.034,6374.909C4147.862,6373.995 4155.305,6373.538 4157.362,6373.538C4157.623,6374.027 4165.522,6403.602 4181.06,6462.261C4176.98,6463.697 4170.321,6465.721 4161.083,6468.333L4160.691,6468.333L4147.177,6411.926L4125.045,6433.862C4123.054,6431.348 4117.439,6423.122 4108.201,6409.184L4108.006,6409.184C4105.525,6440.978 4104.154,6457.169 4103.893,6457.756C4103.697,6457.756 4102.913,6457.691 4101.542,6457.56C4100.106,6457.56 4093.839,6457.43 4082.74,6457.169C4082.74,6457.038 4082.675,6456.973 4082.544,6456.973L4090.378,6371.971L4090.77,6371.775ZM4219.378,6370.796C4235.699,6370.796 4246.406,6379.805 4251.498,6397.824C4252.543,6402.525 4253.065,6405.985 4253.065,6408.204C4251.955,6408.596 4235.96,6411.142 4205.08,6415.843L4205.08,6416.039C4205.08,6422.894 4207.039,6430.532 4210.956,6438.954C4215.657,6445.874 4221.793,6449.334 4229.367,6449.334C4236.613,6449.334 4243.272,6444.438 4249.344,6434.645C4258.223,6441.957 4262.662,6445.678 4262.662,6445.809L4262.662,6446.005C4251.205,6460.629 4238.213,6467.941 4223.687,6467.941C4209.716,6467.941 4198.356,6461.543 4189.607,6448.747C4185.168,6440.064 4182.948,6429.292 4182.948,6416.43L4182.948,6415.059C4182.948,6393.483 4189.934,6379.577 4203.905,6373.342C4208.475,6371.644 4213.633,6370.796 4219.378,6370.796ZM4207.822,6398.216C4207.953,6398.444 4208.018,6398.705 4208.018,6398.999L4208.018,6399.783L4231.325,6396.649C4228.91,6389.337 4225.058,6385.681 4219.77,6385.681L4219.182,6385.681C4213.11,6385.681 4209.389,6388.945 4208.018,6395.474C4208.018,6397.302 4207.953,6398.216 4207.822,6398.216ZM4296.867,6366.879C4308.52,6366.879 4320.402,6371.449 4332.513,6380.589C4330.456,6382.906 4326.409,6387.215 4320.37,6393.515C4311.491,6386.987 4304.375,6383.722 4299.021,6383.722C4294.68,6383.722 4292.003,6385.811 4290.991,6389.99L4290.991,6390.969C4290.991,6396.127 4296.344,6401.415 4307.051,6406.833C4324.156,6416.365 4332.709,6426.289 4332.709,6436.604L4332.709,6436.8C4332.709,6445.091 4328.596,6453.317 4320.37,6461.478C4314.788,6466.048 4308.781,6468.333 4302.351,6468.333L4300.196,6468.333C4289.979,6468.333 4278.162,6463.436 4264.746,6453.643L4264.55,6453.252L4264.55,6453.056C4270.785,6441.99 4274.18,6436.114 4274.735,6435.429C4284.626,6442.218 4292.395,6445.613 4298.042,6445.613L4299.021,6445.613C4303.199,6445.613 4306.007,6443.393 4307.443,6438.954C4307.835,6436.832 4308.031,6435.657 4308.031,6435.429C4308.031,6428.378 4300.392,6421.066 4285.115,6413.493C4278.489,6409.804 4274.441,6406.931 4272.972,6404.875C4268.924,6400.24 4266.901,6395.474 4266.901,6390.577L4266.901,6388.815C4266.901,6380.687 4272.123,6374.289 4282.569,6369.621C4287.074,6367.793 4291.84,6366.879 4296.867,6366.879ZM4334.988,6375.496C4337.371,6375.496 4345.924,6375.692 4360.646,6376.084L4360.842,6376.476C4360.711,6394.821 4360.646,6407.421 4360.646,6414.276L4360.842,6414.276C4372.005,6412.97 4379.317,6412.187 4382.778,6411.926L4382.778,6411.73C4382.386,6393.548 4382.19,6382.188 4382.19,6377.651L4382.582,6377.455L4407.26,6377.455C4407.521,6377.488 4407.651,6377.618 4407.651,6377.847C4408.043,6427.464 4408.239,6457.56 4408.239,6468.137C4408.108,6468.137 4408.043,6468.202 4408.043,6468.333C4394.366,6467.158 4386.009,6466.505 4382.973,6466.374C4382.973,6466.244 4382.908,6466.178 4382.778,6466.178L4381.407,6431.12L4361.625,6431.12C4361.494,6433.829 4361.168,6445.515 4360.646,6466.178L4360.254,6466.374C4359.144,6466.374 4350.918,6467.027 4335.576,6468.333C4335.576,6468.202 4335.511,6468.137 4335.38,6468.137C4334.858,6415.157 4334.597,6384.343 4334.597,6375.692L4334.988,6375.496ZM4452.628,6376.867L4475.348,6464.024C4474.988,6464.285 4467.546,6465.591 4453.02,6467.941C4452.759,6467.353 4450.278,6453.839 4445.577,6427.398C4439.995,6427.921 4436.731,6428.312 4435.784,6428.574L4435.589,6429.945L4435.001,6467.745C4434.87,6467.745 4434.805,6467.81 4434.805,6467.941C4420.279,6467.027 4412.314,6466.57 4410.911,6466.57L4410.127,6466.178C4416.264,6411.795 4419.659,6382.351 4420.312,6377.847L4420.508,6377.847C4435.556,6377.194 4446.263,6376.867 4452.628,6376.867ZM4434.218,6396.061L4434.218,6414.276L4445.577,6413.297L4445.577,6413.101C4443.488,6400.958 4442.313,6394.886 4442.052,6394.886L4434.218,6396.061ZM4485.657,6372.558L4487.812,6372.558C4491.501,6372.558 4494.112,6374.386 4495.646,6378.042C4495.907,6379.022 4496.038,6379.936 4496.038,6380.784L4496.038,6381.568C4496.038,6385.159 4494.21,6387.574 4490.554,6388.815C4489.085,6389.076 4488.04,6389.206 4487.42,6389.206L4485.462,6389.206C4481.642,6389.206 4479.162,6387.117 4478.019,6382.939C4477.888,6382.449 4477.823,6381.862 4477.823,6381.176L4477.823,6380.98C4478.443,6375.366 4481.055,6372.558 4485.657,6372.558ZM4477.627,6396.453L4496.234,6396.453C4496.495,6396.486 4496.625,6396.616 4496.625,6396.845L4496.625,6467.941L4496.43,6468.333C4490.423,6468.202 4485.853,6468.137 4482.72,6468.137L4478.802,6468.137C4477.856,6468.137 4477.334,6467.941 4477.236,6467.549L4477.236,6396.845C4477.268,6396.584 4477.399,6396.453 4477.627,6396.453Z" style="fill:rgb(79,79,79);"/>
            </g>
        </g>
    </g>
</svg>
